# xmcd
#
# Track frame offsets: 
#        150
#        16397
#        29157
#        55940
#        77286
#        105626
#        117966
#        129107
#        141995
#        151344
#        163421
#        174200
#        186241
#
# Disc length: 2692 seconds
#
# Revision: 5
# Processed by: cddbd v1.5.2PL0 Copyright (c) Steve Scherf et al.
# Submitted via: ExactAudioCopyFreeDBPlugin 1.0
#
DISCID=a60a820d
DTITLE=Various Artist - The Great Voice of Soul:  45 Original Soul Cl
DTITLE=assics
DYEAR=1998
DGENRE=Soul
TTITLE0=Nina Simone - My Baby Just Cares for Me
TTITLE1=Allen Toussaint - She Once Belonged to Me
TTITLE2=James Brown - Sex Machine
TTITLE3=Curtis Mayfield - We Got to Have Peace
TTITLE4=Maceo and All The King's Men - Thank You for Letting Me Be Mys
TTITLE4=elf Again
TTITLE5=The Dixie Cups - Chapel of Love
TTITLE6=Paul and Paula - Hey Paula
TTITLE7=The Dells - Oh What a Night
TTITLE8=Gladys Knight and The Pips - Every Beat of My Heart
TTITLE9=Ketty Lester - Love Letters
TTITLE10=Little Eva - The Locomotion
TTITLE11=The Impressions - For Your Precious Love
TTITLE12=Harold Melvin and The Blue Notes - If You Don't Know Me By Now
EXTD=
EXTT0=
EXTT1=
EXTT2=
EXTT3=
EXTT4=
EXTT5=
EXTT6=
EXTT7=
EXTT8=
EXTT9=
EXTT10=
EXTT11=
EXTT12=
PLAYORDER=
